<svg width="42" height="41" viewBox="0 0 42 41" fill="none" xmlns="http://www.w3.org/2000/svg">
<path d="M41.8647 12.0138C41.8412 10.3048 41.5105 8.61272 40.8875 7.01333C40.3472 5.66426 39.522 4.43907 38.4646 3.41602C37.4072 2.39298 36.1409 1.59459 34.7466 1.07186C33.1147 0.479193 31.3908 0.158728 29.6482 0.12411C27.4045 0.0270787 26.6931 0 20.9977 0C15.3022 0 14.5722 1.51313e-07 12.3448 0.12411C10.603 0.158983 8.87987 0.479443 7.24878 1.07186C5.8542 1.59422 4.58768 2.39249 3.53024 3.41558C2.47281 4.43867 1.64774 5.66405 1.10784 7.01333C0.494053 8.59096 0.163548 10.2585 0.130609 11.9439C0.0303198 14.1169 0 14.8052 0 20.3157C0 25.8261 -1.7377e-08 26.5302 0.130609 28.6874C0.165593 30.3753 0.494447 32.0406 1.10784 33.6225C1.64865 34.9714 2.47432 36.1962 3.53211 37.2189C4.5899 38.2416 5.85655 39.0395 7.25111 39.5617C8.87773 40.1782 10.6012 40.5216 12.3472 40.5771C14.5932 40.6742 15.3045 40.7035 21 40.7035C26.6955 40.7035 27.4255 40.7035 29.6528 40.5771C31.3954 40.5439 33.1195 40.2242 34.7512 39.6317C36.1452 39.1083 37.4112 38.3097 38.4685 37.2868C39.5258 36.2638 40.3513 35.0389 40.8922 33.6902C41.5056 32.1106 41.8344 30.4453 41.8694 28.7551C41.9697 26.5843 42 25.8961 42 20.3833C41.9953 14.8729 41.9953 14.1733 41.8647 12.0138ZM20.9837 30.7364C15.027 30.7364 10.2015 26.0676 10.2015 20.3044C10.2015 14.5412 15.027 9.87237 20.9837 9.87237C23.8433 9.87237 26.5858 10.9715 28.6078 12.9278C30.6299 14.8842 31.7659 17.5376 31.7659 20.3044C31.7659 23.0711 30.6299 25.7245 28.6078 27.6809C26.5858 29.6373 23.8433 30.7364 20.9837 30.7364ZM32.195 11.9191C31.8648 11.9194 31.5377 11.8566 31.2325 11.7345C30.9273 11.6124 30.6501 11.4332 30.4165 11.2072C30.183 10.9813 29.9978 10.713 29.8716 10.4178C29.7453 10.1225 29.6805 9.80604 29.6808 9.4865C29.6808 9.1672 29.7458 8.85103 29.8721 8.55604C29.9984 8.26105 30.1835 7.99301 30.4169 7.76723C30.6502 7.54145 30.9273 7.36235 31.2322 7.24016C31.5371 7.11797 31.8638 7.05508 32.1939 7.05508C32.5239 7.05508 32.8507 7.11797 33.1556 7.24016C33.4605 7.36235 33.7375 7.54145 33.9709 7.76723C34.2042 7.99301 34.3893 8.26105 34.5156 8.55604C34.6419 8.85103 34.7069 9.1672 34.7069 9.4865C34.7069 10.8314 33.5827 11.9191 32.195 11.9191Z" fill="#EDF0FA"/>
</svg>
