<svg width="38" height="36" viewBox="0 0 38 36" fill="none" xmlns="http://www.w3.org/2000/svg">
<path d="M33.4202 0.260254C34.5037 0.260254 35.5428 0.676295 36.309 1.41685C37.0752 2.15741 37.5056 3.16182 37.5056 4.20913V31.8513C37.5056 32.8986 37.0752 33.903 36.309 34.6435C35.5428 35.3841 34.5037 35.8001 33.4202 35.8001H4.82267C3.73916 35.8001 2.70003 35.3841 1.93388 34.6435C1.16773 33.903 0.737305 32.8986 0.737305 31.8513V4.20913C0.737305 3.16182 1.16773 2.15741 1.93388 1.41685C2.70003 0.676295 3.73916 0.260254 4.82267 0.260254H33.4202ZM32.3989 30.864V20.3995C32.3989 18.6924 31.6973 17.0552 30.4485 15.8481C29.1996 14.641 27.5058 13.9629 25.7397 13.9629C24.0034 13.9629 21.9812 14.9896 21.0007 16.5296V14.338H15.3016V30.864H21.0007V21.1301C21.0007 19.6097 22.2672 18.3658 23.84 18.3658C24.5985 18.3658 25.3259 18.6571 25.8622 19.1755C26.3985 19.6939 26.6998 20.3969 26.6998 21.1301V30.864H32.3989ZM8.66291 11.2381C9.57305 11.2381 10.4459 10.8887 11.0895 10.2666C11.7331 9.64452 12.0946 8.80081 12.0946 7.92107C12.0946 6.08485 10.5626 4.58427 8.66291 4.58427C7.74735 4.58427 6.86928 4.93583 6.22188 5.5616C5.57448 6.18737 5.21078 7.0361 5.21078 7.92107C5.21078 9.7573 6.76322 11.2381 8.66291 11.2381ZM11.5022 30.864V14.338H5.84401V30.864H11.5022Z" fill="#EDF0FA"/>
</svg>
