<?xml version="1.0" encoding="UTF-8"?>
<svg xmlns="http://www.w3.org/2000/svg" xmlns:xlink="http://www.w3.org/1999/xlink" width="490.74pt" height="301.76pt" viewBox="0 0 490.74 301.76" version="1.1">
<defs>
<clipPath id="clip1">
  <path d="M 0 0 L 490.738281 0 L 490.738281 301.761719 L 0 301.761719 Z M 0 0 "/>
</clipPath>
</defs>
<g id="surface1">
<path style=" stroke:none;fill-rule:nonzero;fill:rgb(88.999939%,11.399841%,14.498901%);fill-opacity:1;" d="M 476.578125 150.882813 C 476.578125 75.378906 373.0625 14.171875 245.371094 14.171875 C 117.683594 14.171875 14.167969 75.378906 14.167969 150.882813 C 14.167969 226.382813 117.683594 287.589844 245.371094 287.589844 C 373.0625 287.589844 476.578125 226.382813 476.578125 150.882813 "/>
<path style=" stroke:none;fill-rule:nonzero;fill:rgb(97.599792%,86.299133%,0.799561%);fill-opacity:1;" d="M 319.460938 64.101563 C 335.65625 60.050781 352.183594 57.503906 368.609375 54.613281 C 368.664063 54.601563 368.722656 54.628906 368.746094 54.679688 C 369.03125 55.242188 369.316406 55.808594 369.605469 56.371094 C 369.648438 56.449219 369.597656 56.546875 369.507813 56.554688 C 352.101563 58.355469 335.054688 62.707031 317.9375 65.976563 C 317.855469 65.996094 317.769531 65.917969 317.785156 65.828125 C 317.925781 64.851563 318.480469 64.277344 319.460938 64.101563 "/>
<path style=" stroke:none;fill-rule:nonzero;fill:rgb(74.499512%,61.599731%,33.699036%);fill-opacity:1;" d="M 246.148438 60.976563 C 257.40625 55.03125 271.886719 56.15625 282.242188 63.480469 C 280.257813 65.714844 277.71875 67.988281 274.503906 66.765625 C 269.171875 65.03125 267.4375 73.09375 262.394531 71.96875 C 258.234375 71.109375 255.53125 74.84375 252.984375 77.421875 C 249.480469 76.722656 245.882813 77.46875 243.730469 80.515625 C 241.523438 83.816406 236.65625 81.039063 234.351563 84.128906 C 232.429688 86.265625 230.890625 88.714844 229.003906 90.882813 C 228.269531 89.003906 227.605469 86.980469 228.152344 84.949219 C 230.269531 74.875 237 65.746094 246.148438 60.976563 "/>
<path style=" stroke:none;fill-rule:nonzero;fill:rgb(74.499512%,61.599731%,33.699036%);fill-opacity:1;" d="M 286.570313 91.324219 C 290.199219 91.246094 293.882813 91.003906 297.304688 89.6875 C 297.515625 100.433594 293.757813 112.027344 284.792969 118.589844 C 272.03125 130.234375 249.867188 129.824219 238.148438 116.917969 C 239.242188 115.214844 240.398438 113.5625 241.644531 111.972656 C 245.820313 111.988281 250.542969 111.480469 251.625 106.640625 C 255.230469 106.179688 259.480469 106.570313 262.097656 103.523438 C 265.238281 99.628906 271.640625 104.03125 274.59375 100.015625 C 277.058594 94.800781 286.328125 98.527344 286.570313 91.324219 "/>
<path style=" stroke:none;fill-rule:nonzero;fill:rgb(97.599792%,86.299133%,0.799561%);fill-opacity:1;" d="M 323.171875 53.648438 C 323.175781 53.644531 323.179688 53.644531 323.183594 53.644531 C 331.820313 51.925781 340.277344 49 349.097656 48.390625 C 348.6875 50.542969 345.765625 49.742188 344.167969 50.359375 C 331.152344 53.464844 318.074219 56.417969 305.222656 60.164063 C 304.859375 59.0625 305.023438 59.5625 304.660156 58.464844 C 310.679688 56.378906 317.074219 55.496094 323.171875 53.648438 "/>
<path style=" stroke:none;fill-rule:nonzero;fill:rgb(97.599792%,86.299133%,0.799561%);fill-opacity:1;" d="M 287.957031 68.738281 C 287.964844 68.75 287.972656 68.765625 287.980469 68.777344 C 291.105469 65.71875 295.199219 63.671875 299.515625 62.972656 C 300.390625 62.828125 301.175781 63.585938 301.039063 64.460938 C 300.726563 66.464844 300.039063 68.410156 299.019531 70.160156 C 303.613281 66.929688 309.484375 65.566406 315.039063 66.441406 C 315.316406 69.210938 313.351563 71.824219 310.894531 73.136719 C 308.4375 74.445313 305.570313 74.71875 302.792969 74.894531 L 302.269531 76.820313 C 303.789063 76.605469 305.394531 76.398438 306.761719 77.332031 C 307.351563 77.730469 307.769531 78.378906 307.8125 79.089844 C 307.921875 80.898438 305.996094 81.699219 304.371094 82 C 300.105469 82.789063 295.644531 82.507813 291.507813 81.195313 C 293.113281 82.523438 294.296875 84.347656 294.875 86.347656 C 295.101563 87.125 294.539063 87.894531 293.730469 87.933594 C 288.546875 88.1875 283.3125 87.441406 278.402344 85.742188 L 283.03125 90.785156 C 283.554688 91.355469 283.429688 92.246094 282.78125 92.667969 C 280.71875 94.011719 278.039063 94.371094 275.5625 94.019531 C 272.601563 93.601563 269.851563 92.300781 267.148438 91.015625 C 269.5625 92.316406 271.507813 94.445313 272.621094 96.949219 C 272.972656 97.730469 272.441406 98.625 271.589844 98.695313 C 266.414063 99.121094 261.117188 98.007813 256.5625 95.507813 C 257.023438 96.703125 258.105469 97.527344 258.945313 98.496094 C 259.78125 99.464844 260.40625 100.886719 259.769531 102 C 259.238281 102.917969 258.078125 103.226563 257.023438 103.371094 C 253.007813 103.929688 248.832031 103.3125 245.144531 101.617188 C 245.503906 102.863281 246.589844 103.738281 247.339844 104.800781 C 248.089844 105.859375 248.410156 107.523438 247.382813 108.316406 C 246.9375 108.660156 246.34375 108.738281 245.78125 108.789063 C 241.582031 109.148438 237.28125 108.324219 233.511719 106.433594 L 237.535156 110.21875 C 237.992188 110.648438 238.480469 111.140625 238.53125 111.765625 C 238.597656 112.585938 237.890625 113.261719 237.167969 113.65625 C 231.632813 116.695313 225.019531 110.757813 218.777344 111.699219 C 216.992188 111.96875 215.34375 112.800781 213.734375 113.625 C 204.058594 118.59375 194.53125 123.847656 185.171875 129.382813 C 183.988281 130.082031 183.566406 130.46875 182.351563 129.707031 C 181.976563 129.472656 179.492188 127.558594 179.195313 127.707031 C 191.039063 121.183594 202.882813 114.664063 214.730469 108.140625 C 215.894531 107.496094 217.09375 106.828125 217.914063 105.785156 C 219.527344 103.738281 219.308594 100.84375 220.027344 98.339844 C 220.792969 95.683594 222.75 93.40625 225.230469 92.195313 C 225.953125 91.839844 226.828125 92.210938 227.078125 92.980469 L 228.863281 98.449219 C 230.339844 93.40625 233.507813 88.882813 237.707031 85.734375 C 238.527344 85.121094 239.703125 85.605469 239.835938 86.621094 L 240.515625 91.867188 C 241.851563 87.335938 244.652344 83.253906 248.375 80.347656 C 249.140625 79.75 250.253906 80.1875 250.476563 81.128906 C 250.828125 82.617188 250.996094 84.152344 250.96875 85.683594 C 253.132813 81.238281 256.5625 77.417969 260.742188 74.777344 C 261.4375 74.339844 262.367188 74.625 262.6875 75.382813 L 264.070313 78.664063 C 265.953125 74.574219 269.363281 71.222656 273.460938 69.363281 C 274.261719 68.996094 275.1875 69.53125 275.304688 70.40625 L 275.917969 74.9375 C 277.773438 70.996094 281.140625 67.800781 285.152344 66.113281 C 285.785156 65.851563 286.515625 66.101563 286.84375 66.703125 "/>
<path style=" stroke:none;fill-rule:nonzero;fill:rgb(97.599792%,86.299133%,0.799561%);fill-opacity:1;" d="M 313.425781 76.371094 C 325.652344 73.363281 337.90625 70.441406 350.316406 68.289063 C 350.398438 68.277344 350.472656 68.335938 350.46875 68.417969 C 350.453125 68.824219 350.429688 69.445313 350.414063 69.832031 C 350.414063 69.890625 350.367188 69.9375 350.308594 69.945313 C 337.363281 72.117188 324.734375 75.808594 311.828125 78.058594 C 312.011719 77.140625 312.542969 76.578125 313.425781 76.371094 "/>
<path style=" stroke:none;fill-rule:nonzero;fill:rgb(97.599792%,86.299133%,0.799561%);fill-opacity:1;" d="M 133.320313 157.277344 C 142.066406 152.136719 150.089844 145.855469 159.058594 141.054688 C 159.308594 142.613281 160.417969 144.964844 158.488281 145.886719 C 150.023438 151.285156 141.90625 157.242188 133.320313 162.449219 "/>
<g clip-path="url(#clip1)" clip-rule="nonzero">
<path style=" stroke:none;fill-rule:nonzero;fill:rgb(74.499512%,61.599731%,33.699036%);fill-opacity:1;" d="M 245.371094 8.625 C 182.636719 8.625 123.574219 23.121094 79.066406 49.4375 C 33.640625 76.300781 8.625 112.324219 8.625 150.882813 C 8.625 189.4375 33.640625 225.464844 79.066406 252.324219 C 123.574219 278.640625 182.636719 293.136719 245.371094 293.136719 C 308.105469 293.136719 367.171875 278.640625 411.679688 252.324219 C 457.105469 225.464844 482.121094 189.4375 482.121094 150.882813 C 482.121094 112.324219 457.105469 76.300781 411.679688 49.4375 C 367.171875 23.121094 308.105469 8.625 245.371094 8.625 M 245.371094 301.761719 C 181.117188 301.761719 120.496094 286.839844 74.675781 259.746094 C 26.519531 231.273438 0 192.609375 0 150.882813 C 0 109.152344 26.519531 70.488281 74.675781 42.015625 C 120.496094 14.921875 181.117188 0.00390625 245.371094 0.00390625 C 309.628906 0.00390625 370.25 14.921875 416.070313 42.015625 C 464.226563 70.488281 490.746094 109.152344 490.746094 150.882813 C 490.746094 192.609375 464.226563 231.273438 416.070313 259.746094 C 370.25 286.839844 309.628906 301.761719 245.371094 301.761719 "/>
</g>
<path style=" stroke:none;fill-rule:nonzero;fill:rgb(0%,0%,0%);fill-opacity:1;" d="M 321.8125 173.421875 C 328.695313 154.15625 335.304688 134.761719 343.054688 115.832031 C 350.859375 134.867188 357.171875 154.492188 365.019531 173.511719 C 350.617188 173.4375 336.210938 173.617188 321.8125 173.421875 M 407.625 224.867188 C 403.574219 222.089844 402.449219 216.917969 400.734375 212.605469 C 384.300781 168.878906 368.039063 125.042969 351.871094 81.265625 C 349.792969 81.179688 347.71875 81.195313 345.640625 81.28125 C 328.1875 127.355469 311.15625 173.695313 294.046875 219.945313 C 292.210938 225.0625 286.691406 227.046875 281.703125 227.441406 C 281.648438 229.003906 281.617188 230.554688 281.601563 232.121094 C 294.25 232.21875 306.914063 232.289063 319.5625 232.121094 C 319.609375 230.507813 319.59375 228.902344 319.5 227.296875 C 315.996094 227.199219 311.933594 227.792969 309.082031 225.269531 C 305.394531 221.898438 305.25 216.035156 307.25 211.738281 C 311.445313 202.542969 313.742188 192.632813 317.714844 183.347656 C 334.628906 182.964844 351.566406 183.1875 368.488281 183.238281 C 371.933594 193.523438 375.917969 203.628906 379.628906 213.820313 C 380.671875 217.546875 380.308594 222.082031 377.609375 225.046875 C 374.75 227.90625 370.414063 227.175781 366.753906 227.285156 C 366.714844 228.894531 366.710938 230.515625 366.722656 232.136719 C 382.984375 232.25 399.246094 232.179688 415.515625 232.179688 C 417.460938 226.699219 410.828125 226.867188 407.625 224.867188 "/>
<path style=" stroke:none;fill-rule:nonzero;fill:rgb(0%,0%,0%);fill-opacity:1;" d="M 129.5 214.863281 C 129.46875 197.628906 129.445313 180.386719 129.515625 163.144531 L 129.515625 157.976563 C 129.515625 147.058594 129.472656 136.140625 129.445313 125.226563 C 129.417969 114.105469 128.503906 102.363281 129.765625 91.324219 C 129.792969 91.074219 142.503906 91.121094 143.683594 91.144531 C 148.296875 91.238281 153.132813 91.484375 157.371094 93.449219 C 166.257813 99.121094 169.289063 120.296875 169.289063 120.296875 L 174.914063 120.296875 L 175.027344 81.628906 L 69.277344 81.363281 L 63.460938 81.363281 L 63.453125 120.296875 L 69.15625 120.296875 C 69.15625 120.296875 71.855469 102.523438 77.765625 96.292969 C 82.015625 92.671875 87.667969 91.34375 93.117188 90.980469 C 94.402344 90.894531 109.34375 91.304688 109.34375 91.617188 C 109.28125 130.40625 109.3125 169.191406 109.320313 207.980469 C 109.375 213.039063 109.878906 218.8125 106.21875 222.878906 C 102.757813 227.285156 96.679688 227.421875 91.5625 227.34375 C 91.546875 228.933594 91.53125 232.167969 91.53125 232.167969 L 146.855469 232.167969 C 146.855469 232.167969 146.929688 229.167969 146.953125 227.679688 C 139.050781 228.957031 129.195313 223.703125 129.5 214.863281 "/>
<path style=" stroke:none;fill-rule:nonzero;fill:rgb(0%,0%,0%);fill-opacity:1;" d="M 176.445313 179.761719 C 176.105469 179.449219 175.914063 178.929688 175.917969 178.0625 C 175.972656 164.34375 176.027344 150.621094 176.082031 136.902344 C 182.289063 136.316406 188.835938 136.328125 194.40625 139.136719 C 199.25 141.574219 202.976563 146.058594 204.691406 151.203125 C 206.410156 156.347656 206.144531 162.089844 204.15625 167.136719 C 202.566406 171.171875 199.839844 174.828125 196.15625 177.113281 C 192.832031 179.171875 188.941406 180 185.078125 180.25 C 183.105469 180.378906 181.125 180.359375 179.148438 180.28125 C 177.980469 180.234375 177.011719 180.28125 176.445313 179.761719 M 266.871094 239.40625 C 262.542969 239.796875 258.191406 239.984375 253.851563 239.953125 C 238.257813 238.207031 223.535156 230.234375 212.984375 218.660156 C 203.265625 209.175781 196.207031 197.234375 191.082031 184.722656 C 199.820313 184.90625 208.085938 180.972656 214.261719 174.957031 C 215.648438 173.605469 216.683594 171.511719 217.515625 169.792969 C 218.382813 168.011719 219.160156 166.230469 219.65625 164.304688 C 220.65625 160.410156 220.683594 156.261719 219.679688 152.363281 C 218.289063 146.988281 215.011719 142.199219 210.84375 138.53125 C 207.839844 135.890625 204.316406 133.683594 200.539063 132.242188 C 196.539063 130.714844 192.703125 130.46875 188.492188 130.46875 L 150.484375 130.46875 C 150.484375 130.46875 150.367188 134.449219 150.703125 136.007813 C 156.210938 135.714844 161.722656 139.699219 161.503906 145.5625 C 161.570313 169.65625 161.601563 193.765625 161.488281 217.867188 C 161.585938 223.992188 155.808594 227.550781 150.269531 227.769531 C 150.339844 229.085938 150.484375 232.167969 150.484375 232.167969 L 187.8125 232.167969 C 187.8125 232.167969 187.675781 228.730469 187.628906 227.535156 C 184.632813 226.941406 181.316406 226.699219 178.875 224.675781 C 176.53125 222.324219 175.914063 218.824219 176 215.632813 C 176.089844 206.960938 176.007813 198.300781 176.03125 189.628906 C 180.074219 197.339844 183.308594 205.578125 188.730469 212.484375 C 199.804688 228.515625 217.375 240.691406 237.003906 242.8125 C 245.671875 244.363281 254.703125 243.875 263.121094 241.277344 C 263.472656 241.167969 263.820313 241.03125 264.148438 240.863281 "/>
<path style=" stroke:none;fill-rule:nonzero;fill:rgb(0%,0%,0%);fill-opacity:1;" d="M 278.191406 136.027344 L 278.226563 131.421875 L 236.949219 131.421875 C 236.949219 131.421875 236.945313 134.199219 236.941406 135.570313 C 241.234375 135.75 246.105469 136.300781 248.652344 139.761719 C 250.492188 142.261719 250.5625 145.601563 250.5625 148.707031 C 250.542969 170.679688 250.527344 192.648438 250.511719 214.621094 C 250.507813 217.859375 250.414063 221.375 248.382813 223.898438 C 245.90625 226.976563 241.457031 227.484375 237.511719 227.394531 C 236.972656 227.382813 237.417969 232.261719 237.417969 232.261719 L 278.238281 232.261719 C 278.238281 232.261719 278.210938 229.003906 278.195313 227.4375 C 273.910156 227.320313 268.914063 226.828125 266.617188 223.207031 C 265.289063 221.113281 265.246094 218.484375 265.246094 216.007813 C 265.234375 193.492188 265.226563 170.976563 265.21875 148.464844 C 265.214844 145.257813 265.316406 141.757813 267.390625 139.316406 C 269.90625 136.351563 274.304688 136.074219 278.191406 136.027344 "/>
<path style=" stroke:none;fill-rule:nonzero;fill:rgb(100%,100%,100%);fill-opacity:1;" d="M 325.617188 173.421875 C 332.503906 154.15625 339.109375 134.761719 346.859375 115.832031 C 354.664063 134.867188 360.976563 154.492188 368.824219 173.511719 C 354.421875 173.4375 340.015625 173.617188 325.617188 173.421875 M 411.433594 224.867188 C 407.378906 222.089844 406.253906 216.917969 404.539063 212.605469 C 388.105469 168.878906 371.847656 125.042969 355.675781 81.265625 C 353.597656 81.179688 351.523438 81.195313 349.445313 81.28125 C 331.992188 127.355469 314.964844 173.695313 297.851563 219.945313 C 296.019531 225.0625 290.496094 227.046875 285.507813 227.441406 C 285.453125 229.003906 285.421875 230.554688 285.40625 232.121094 C 298.058594 232.21875 310.71875 232.289063 323.367188 232.121094 C 323.414063 230.507813 323.398438 228.902344 323.304688 227.296875 C 319.800781 227.199219 315.738281 227.792969 312.886719 225.269531 C 309.199219 221.898438 309.054688 216.035156 311.054688 211.738281 C 315.253906 202.542969 317.550781 192.632813 321.519531 183.347656 C 338.433594 182.964844 355.371094 183.1875 372.292969 183.238281 C 375.738281 193.523438 379.722656 203.628906 383.4375 213.820313 C 384.476563 217.546875 384.113281 222.082031 381.414063 225.046875 C 378.554688 227.90625 374.21875 227.175781 370.558594 227.285156 C 370.519531 228.894531 370.515625 230.515625 370.53125 232.136719 C 386.789063 232.25 403.050781 232.179688 419.316406 232.179688 C 421.265625 226.699219 414.632813 226.867188 411.433594 224.867188 "/>
<path style=" stroke:none;fill-rule:nonzero;fill:rgb(100%,100%,100%);fill-opacity:1;" d="M 133.304688 214.863281 C 133.273438 197.628906 133.253906 180.386719 133.320313 163.144531 L 133.320313 157.976563 C 133.320313 147.058594 133.277344 136.140625 133.25 125.226563 C 133.222656 114.105469 132.308594 102.363281 133.570313 91.324219 C 133.597656 91.074219 146.308594 91.121094 147.488281 91.144531 C 152.101563 91.238281 156.9375 91.484375 161.179688 93.449219 C 170.0625 99.121094 173.097656 120.296875 173.097656 120.296875 L 178.71875 120.296875 L 178.832031 81.628906 L 73.082031 81.363281 L 67.265625 81.363281 L 67.257813 120.296875 L 72.960938 120.296875 C 72.960938 120.296875 75.660156 102.523438 81.570313 96.292969 C 85.820313 92.671875 91.472656 91.34375 96.921875 90.980469 C 98.207031 90.894531 113.152344 91.304688 113.148438 91.617188 C 113.089844 130.40625 113.121094 169.191406 113.128906 207.980469 C 113.179688 213.039063 113.683594 218.8125 110.023438 222.878906 C 106.5625 227.285156 100.488281 227.421875 95.367188 227.34375 C 95.351563 228.933594 95.335938 232.167969 95.335938 232.167969 L 150.660156 232.167969 C 150.660156 232.167969 150.738281 229.167969 150.761719 227.679688 C 142.855469 228.957031 133 223.703125 133.304688 214.863281 "/>
<path style=" stroke:none;fill-rule:nonzero;fill:rgb(100%,100%,100%);fill-opacity:1;" d="M 180.253906 179.761719 C 179.910156 179.449219 179.71875 178.929688 179.722656 178.0625 C 179.777344 164.34375 179.832031 150.621094 179.886719 136.902344 C 186.097656 136.316406 192.640625 136.328125 198.210938 139.136719 C 203.054688 141.574219 206.78125 146.058594 208.496094 151.203125 C 210.214844 156.347656 209.949219 162.089844 207.960938 167.136719 C 206.371094 171.171875 203.644531 174.828125 199.960938 177.113281 C 196.636719 179.171875 192.746094 180 188.886719 180.25 C 186.910156 180.378906 184.929688 180.359375 182.953125 180.28125 C 181.785156 180.234375 180.816406 180.28125 180.253906 179.761719 M 270.675781 239.40625 C 266.347656 239.796875 261.996094 239.984375 257.65625 239.953125 C 242.0625 238.207031 227.339844 230.234375 216.789063 218.660156 C 207.070313 209.175781 200.011719 197.234375 194.886719 184.722656 C 203.625 184.90625 211.890625 180.972656 218.066406 174.957031 C 219.453125 173.605469 220.488281 171.511719 221.320313 169.792969 C 222.1875 168.011719 222.964844 166.230469 223.460938 164.304688 C 224.460938 160.410156 224.488281 156.261719 223.484375 152.363281 C 222.09375 146.988281 218.816406 142.199219 214.648438 138.53125 C 211.644531 135.890625 208.121094 133.683594 204.34375 132.242188 C 200.347656 130.714844 196.511719 130.46875 192.296875 130.46875 L 154.289063 130.46875 C 154.289063 130.46875 154.175781 134.449219 154.507813 136.007813 C 160.015625 135.714844 165.527344 139.699219 165.308594 145.5625 C 165.378906 169.65625 165.40625 193.765625 165.292969 217.867188 C 165.390625 223.992188 159.613281 227.550781 154.074219 227.769531 C 154.144531 229.085938 154.289063 232.167969 154.289063 232.167969 L 191.617188 232.167969 C 191.617188 232.167969 191.480469 228.730469 191.433594 227.535156 C 188.4375 226.941406 185.121094 226.699219 182.679688 224.675781 C 180.335938 222.324219 179.722656 218.824219 179.804688 215.632813 C 179.894531 206.960938 179.8125 198.300781 179.835938 189.628906 C 183.882813 197.339844 187.113281 205.578125 192.535156 212.484375 C 203.609375 228.515625 221.179688 240.691406 240.808594 242.8125 C 249.476563 244.363281 258.511719 243.875 266.929688 241.277344 C 267.277344 241.167969 267.625 241.03125 267.953125 240.863281 "/>
<path style=" stroke:none;fill-rule:nonzero;fill:rgb(100%,100%,100%);fill-opacity:1;" d="M 281.996094 136.027344 C 282.007813 134.492188 282.027344 131.421875 282.027344 131.421875 L 240.753906 131.421875 C 240.753906 131.421875 240.75 134.199219 240.746094 135.570313 C 245.039063 135.75 249.914063 136.300781 252.457031 139.761719 C 254.296875 142.261719 254.367188 145.601563 254.367188 148.707031 C 254.351563 170.679688 254.332031 192.648438 254.316406 214.621094 C 254.3125 217.859375 254.21875 221.375 252.1875 223.898438 C 249.710938 226.976563 245.265625 227.484375 241.316406 227.394531 C 240.777344 227.382813 241.226563 232.261719 241.226563 232.261719 L 282.042969 232.261719 C 282.042969 232.261719 282.015625 229.003906 282.003906 227.4375 C 277.714844 227.320313 272.71875 226.828125 270.421875 223.207031 C 269.09375 221.113281 269.050781 218.484375 269.050781 216.007813 C 269.039063 193.492188 269.03125 170.976563 269.023438 148.464844 C 269.019531 145.257813 269.121094 141.757813 271.195313 139.316406 C 273.714844 136.351563 278.105469 136.074219 281.996094 136.027344 "/>
</g>
</svg>
