<svg width="37" height="36" viewBox="0 0 37 36" fill="none" xmlns="http://www.w3.org/2000/svg">
<path d="M18.3777 5.47669e-05C13.5058 0.00477634 8.83472 1.87798 5.3894 5.20869C1.94409 8.5394 0.0058719 13.0556 1.0445e-05 17.7664C-0.00367985 21.1206 0.970557 24.3891 2.80832 27.2187L3.24378 27.8895L1.38756 34.4444L8.34377 32.6817L9.01172 33.0671C11.8441 34.688 15.0753 35.5422 18.3666 35.5399H18.3703C23.2407 35.5333 27.9096 33.6598 31.3538 30.3302C34.798 27.0006 36.7365 22.4864 36.7443 17.7771C36.7527 15.4428 36.2822 13.1301 35.3599 10.9729C34.4376 8.81569 33.0819 6.85681 31.3712 5.20971C29.6694 3.55349 27.6447 2.24022 25.4143 1.34596C23.1839 0.451707 20.7922 -0.00576126 18.3777 5.47669e-05ZM29.1829 25.3989C28.7216 26.6478 26.5148 27.7825 25.4557 27.9359C24.2946 28.1295 23.1028 28.0574 21.9757 27.7254C20.9065 27.4052 19.8557 27.03 18.8279 26.6014C13.2851 24.2892 9.66859 18.8975 9.38813 18.5371C9.11504 18.1803 7.13704 15.6397 7.13704 13.0135C7.13704 10.3837 8.5615 9.09197 9.06707 8.55673C9.25271 8.35392 9.4796 8.1903 9.73358 8.07611C9.98756 7.96191 10.2632 7.89959 10.5432 7.89303C10.9122 7.89303 11.2776 7.8966 11.6023 7.91088C11.9418 7.92515 12.3957 7.78599 12.8422 8.82792C13.3035 9.89839 14.4106 12.5246 14.5472 12.7922C14.6837 13.0563 14.776 13.3703 14.5951 13.7271C14.4106 14.0875 14.3221 14.3052 14.0416 14.6192C13.7685 14.9332 13.4622 15.315 13.215 15.5576C12.9382 15.8217 12.6503 16.1107 12.9714 16.646C13.2962 17.1776 14.4032 18.9296 16.0417 20.3462C18.1526 22.1661 19.935 22.7263 20.4848 22.9975C21.0384 23.2615 21.3594 23.2223 21.6842 22.8619C22.0052 22.5015 23.0644 21.3025 23.4334 20.7709C23.8024 20.2356 24.1678 20.3248 24.677 20.4997C25.1826 20.6817 27.8987 21.9698 28.4485 22.2374C28.9947 22.5015 29.3674 22.6371 29.5076 22.8619C29.6405 23.0831 29.6405 24.15 29.1829 25.3989Z" fill="white"/>
</svg>
